<svg width="560" height="609" viewBox="0 0 560 609" fill="none" xmlns="http://www.w3.org/2000/svg">
<path d="M559.333 328.54C559.333 482.996 434.123 608.207 279.667 608.207C125.211 608.207 0 482.996 0 328.54C0 174.086 125.211 48.8738 279.667 48.8738C434.123 48.8738 559.333 174.086 559.333 328.54Z" fill="white"/>
<path d="M458 574.138C458 592.815 378.479 607.955 280.387 607.955C182.293 607.955 102.772 592.815 102.772 574.138C102.772 555.459 182.293 540.319 280.387 540.319C378.479 540.319 458 555.459 458 574.138Z" fill="#00746B"/>
<path d="M443.924 560.923C447.507 565.099 447.321 572.183 443.391 576.077C442.55 577.255 441.376 578.317 439.806 579.174C419.292 590.366 302.058 615.334 134.861 585.827C123.639 583.846 104.055 576.813 105.071 568.697C103.567 570.469 102.773 572.285 102.773 574.137C102.773 592.815 182.293 607.955 280.386 607.955C378.479 607.955 458 592.815 458 574.137C458 569.449 452.984 564.982 443.924 560.923Z" fill="#036D64"/>
<path d="M414.029 551.865C414.029 551.865 419.391 543.279 414.029 535.638C414.029 535.638 421.334 536.07 420.001 551.035C420.001 551.035 428.001 529.427 444.001 527.714C444.001 527.714 427.362 537.239 429.014 555.619C429.014 555.619 433.694 554.377 436.597 550.926C437.563 549.777 438.334 548.382 438.667 546.705C440.001 539.999 444.029 560.977 429.014 564.489L414.029 551.865Z" fill="#00746B"/>
<path d="M390.044 380.423C383.732 361.977 359.682 353.503 336.326 361.495C328.05 364.327 321.35 366.745 315.944 368.859C315.371 367.626 293.426 391.627 316.439 417.998C327.994 434.234 346.43 450.027 363.018 444.35C386.374 436.358 396.356 398.87 390.044 380.423Z" fill="#827A79"/>
<g opacity="0.389999">
<g opacity="0.389999">
<path opacity="0.389999" d="M390.044 380.423C383.732 361.977 359.682 353.503 336.326 361.495C328.05 364.327 321.35 366.745 315.944 368.859C315.852 368.662 315.211 369.118 314.296 370.118C332.884 366.518 351.844 373.143 363.704 388.258C375.9 403.799 377.672 424.027 369.05 441.47C388.05 429.694 395.784 397.193 390.044 380.423Z" fill="#6E6867"/>
</g>
</g>
<path d="M390.044 380.423C388.339 377.295 386.41 374.353 384.05 371.851C381.728 369.323 379.008 367.247 376.06 365.641C373.082 364.078 369.9 362.926 366.588 362.247C363.291 361.531 359.894 361.171 356.474 361.141C353.055 361.039 349.611 361.254 346.176 361.639C342.73 361.974 339.308 362.598 335.878 363.241C329.031 364.617 322.252 366.493 315.431 368.529C321.599 364.961 328.24 362.198 335.138 360.209C338.582 359.178 342.118 358.458 345.687 357.885C349.267 357.363 352.9 357.103 356.555 357.143C360.204 357.255 363.88 357.655 367.466 358.574C371.031 359.534 374.547 360.901 377.651 362.969C380.778 364.991 383.472 367.635 385.572 370.627C387.646 373.643 389.158 376.971 390.044 380.423Z" fill="#6E6868"/>
<path d="M316.543 508.473L353.871 565.211L353.911 565.174C359.208 570.782 376.572 574.421 387.732 563.881C398.892 553.339 403.643 540.25 398.348 534.642L362.128 504.625L323.088 461.789L316.543 508.473Z" fill="#827A79"/>
<path d="M398.348 534.642L362.129 504.625L346.621 487.61C355 504.27 368.129 518.527 375.829 535.599C380.217 545.329 383.349 555.785 382.292 566.569C382.252 566.99 382.19 567.401 382.138 567.817C384.106 566.818 385.994 565.521 387.732 563.881C398.892 553.339 403.644 540.25 398.348 534.642Z" fill="#7B7473"/>
<path d="M223.145 527.531L147.95 513.393V513.447C140.235 513.447 133.982 525.891 133.982 541.239C133.982 556.59 140.235 569.034 147.95 569.034L252.589 564.343L223.145 527.531Z" fill="#827A79"/>
<path d="M144.164 514.508C138.292 517.796 133.981 528.505 133.981 541.24C133.981 556.591 140.236 569.035 147.949 569.035L212.724 566.131C177.36 562.531 129.136 551.544 144.164 514.508Z" fill="#7B7473"/>
<path d="M343.91 494.119C350.335 508.873 347.501 538.519 337.454 549.793C316.543 573.257 292.831 569.035 268.385 569.035C227.979 569.035 191.133 535.517 191.133 498.909C191.133 462.303 223.887 432.627 264.294 432.627C304.699 432.627 329.293 460.557 343.91 494.119Z" fill="#9B9190"/>
<path d="M343.91 494.119C336.618 477.379 326.845 462.041 313.866 450.869C314.887 456.624 305.339 456.813 307.142 461.789C315.747 485.556 317.902 509.095 301.405 530.276C286.357 549.596 253.202 552.651 228.694 544.653C213.725 539.769 201.314 529.209 193.721 515.777C202.771 545.2 234.313 569.035 268.385 569.035C292.831 569.035 316.543 573.257 337.454 549.793C347.501 538.519 350.335 508.873 343.91 494.119Z" fill="#958C8B"/>
<path d="M264.294 432.626C240.86 432.626 220.016 442.618 206.627 458.145C208.014 459.829 210.04 460.898 212.371 462.225C268.386 494.118 308.434 467.357 320.912 456.937C307.496 442.098 287.118 432.626 264.294 432.626Z" fill="#827A79"/>
<path d="M365.085 399.846C356.338 399.846 349.217 399.965 343.418 400.214C339.99 367.778 310.035 342.417 273.581 342.417C252.602 342.417 233.787 350.825 220.927 364.137C193.739 359.865 172.415 358.454 172.415 358.454C172.415 358.454 125.009 353.976 139.23 332.981C139.23 332.981 175.123 352.942 181.895 329.756C188.669 306.569 151.421 298.645 130.426 313.781C109.433 328.918 70.8313 378.354 188.669 413.57C188.669 413.57 208.646 420.568 207.969 423.866C207.969 423.866 194.667 451.977 212.371 458.944C225.943 464.286 249.491 470.868 272.499 470.425C272.861 470.43 273.218 470.449 273.581 470.449C295.523 470.449 315.109 461.256 327.975 446.866C333.65 465.97 345.981 486.88 363.513 486.88C388.198 486.88 409.782 454.645 409.782 435.148C409.782 415.652 389.771 399.846 365.085 399.846Z" fill="#958C8B"/>
<g opacity="0.130005">
<g opacity="0.130005">
<path opacity="0.130005" d="M269.473 458.12C253.495 456.969 233.599 452.33 223.489 438.68C220.979 435.293 219.606 431.601 218.979 427.472C218.537 424.557 218.878 420.946 217.698 418.185C215.791 413.714 210.298 411.949 206.087 410.501C183.443 402.716 141.841 388.572 130.285 379.189C120.845 371.525 113.495 360.87 111.749 348.673C110.995 343.417 111.314 338.393 112.419 333.59C100.091 355.578 103.943 388.25 188.667 413.57C188.667 413.57 208.646 420.568 207.969 423.866C207.969 423.866 194.667 451.977 212.371 458.944C225.943 464.286 249.491 470.868 272.499 470.425C272.861 470.429 273.218 470.449 273.581 470.449C294.062 470.449 312.483 462.436 325.311 449.668C306.687 453.556 288.802 459.512 269.473 458.12Z" fill="#6E6867"/>
</g>
</g>
<path d="M409.783 435.147C408.833 427.185 405.096 420.026 399.464 414.837C396.665 412.251 393.632 409.885 390.215 408.15C386.857 406.347 383.323 404.813 379.605 403.869C377.789 403.254 375.884 402.966 374.015 402.541C373.069 402.381 372.111 402.286 371.16 402.154C370.208 402.018 369.255 401.906 368.292 401.869L365.408 401.682C364.433 401.631 363.417 401.626 362.425 401.593C360.432 401.549 358.441 401.465 356.452 401.367C348.488 401.046 340.548 400.465 332.579 399.846C340.528 398.801 348.515 398.51 356.472 398.246C358.463 398.174 360.453 398.117 362.439 398.087C363.439 398.074 364.415 398.033 365.428 398.037L368.512 398.087C369.543 398.067 370.565 398.195 371.588 398.317C372.609 398.441 373.637 398.529 374.655 398.685C376.672 399.106 378.724 399.387 380.696 400.022C388.615 402.274 396.153 406.471 401.7 412.675C407.395 418.687 410.548 427.158 409.783 435.147Z" fill="#807978"/>
<path d="M250.803 419.294C250.803 419.294 224.293 466.068 207.63 449.225C203.345 444.894 207.365 436.708 210.678 429.622C214.238 422.008 217.279 415.632 217.279 415.632C217.279 415.632 241.07 420.985 250.803 419.294Z" fill="#DBAEB3"/>
<g opacity="0.429993">
<g opacity="0.429993">
<path opacity="0.429993" d="M207.973 449.548C209.802 443.593 214.899 437.72 219.983 434.799C223.738 432.643 228.178 431.573 232.439 432.816C235.079 433.587 237.09 435.003 238.698 436.817C245.763 428.185 250.803 419.295 250.803 419.295C241.07 420.984 217.279 415.632 217.279 415.632C217.279 415.632 214.238 422.008 210.678 429.623C207.365 436.707 203.345 444.895 207.63 449.225C207.743 449.34 207.859 449.44 207.973 449.548Z" fill="#C48C98"/>
</g>
</g>
<path d="M211.65 438.119C213.064 436.291 214.476 434.461 215.889 432.632C219.272 429.272 223.26 426.948 227.852 425.66C230.253 425.337 232.656 425.015 235.058 424.692C238.79 424.551 242.272 425.329 245.502 427.028C245.622 427.065 245.736 427.113 245.854 427.153C248.925 422.608 250.804 419.295 250.804 419.295C241.069 420.984 217.28 415.632 217.28 415.632C217.28 415.632 214.237 422.008 210.678 429.623C207.365 436.707 203.345 444.895 207.63 449.225C207.768 449.365 207.908 449.488 208.048 449.62C208.372 445.547 209.566 441.711 211.65 438.119Z" fill="#372F2E"/>
<path d="M200.077 407.216C204.075 409.241 208.032 411.059 212.045 412.693C216.073 414.289 220.144 415.664 224.279 416.753C226.335 417.364 228.439 417.729 230.528 418.207L233.697 418.713C234.755 418.913 235.817 419.041 236.888 419.137C241.176 419.725 245.489 419.623 249.999 419.743C245.807 421.26 241.3 422.273 236.756 422.256L235.049 422.317C234.48 422.309 233.915 422.253 233.348 422.224C232.213 422.151 231.075 422.073 229.943 421.956C227.697 421.596 225.439 421.252 223.252 420.619C218.859 419.445 214.611 417.744 210.689 415.493C206.776 413.256 203.083 410.571 200.077 407.216Z" fill="#372F2E"/>
<path d="M208.803 455.665C211.361 456.772 213.863 457.533 216.403 457.657C218.937 457.801 221.443 457.296 223.844 456.423C226.247 455.551 228.573 454.357 230.817 452.964C233.059 451.556 235.248 450.021 237.384 448.268C236.095 450.743 234.176 452.837 232.044 454.645C229.897 456.445 227.452 457.965 224.737 458.935C222.045 459.923 219.02 460.3 216.152 459.715C213.281 459.165 210.703 457.665 208.803 455.665Z" fill="#807978"/>
<path d="M257.057 386.581C267.151 384.386 275.718 386.85 279.714 389.249C278.454 387.613 276.703 386.405 274.825 385.545C272.935 384.689 270.893 384.187 268.841 384.005C266.787 383.822 264.719 383.95 262.723 384.366C260.73 384.793 258.797 385.481 257.057 386.581Z" fill="#372F2E"/>
<path d="M263.005 385.441C264.645 385.247 265.981 385.001 267.309 384.859C268.619 384.701 269.857 384.632 271.095 384.655C272.333 384.68 273.593 384.792 274.977 385.008C276.372 385.215 277.839 385.543 279.579 385.895C278.847 384.969 277.531 384.179 275.919 383.573C274.307 382.973 272.344 382.599 270.469 382.572C268.589 382.536 259.388 385.387 263.005 385.441Z" fill="#372F2E"/>
<path d="M332.578 410.151C332.578 410.151 406.226 414.006 391.497 452.884C374.889 496.72 332.578 462.975 332.578 436.564C332.578 436.564 335.118 417.771 332.578 410.151Z" fill="#DBAEB3"/>
<g opacity="0.429993">
<g opacity="0.429993">
<path opacity="0.429993" d="M378.172 421.619C382.884 436.464 379.052 454.648 361.713 457.991C352.7 459.729 342.971 455.803 335.435 449.196C345.211 471.647 377.492 489.851 391.497 452.884C397.215 437.792 389.612 427.98 378.172 421.619Z" fill="#C48C98"/>
</g>
</g>
<path d="M162.934 324.154C160.044 323.45 157.067 323.284 154.218 323.592C151.367 323.904 148.647 324.851 146.451 326.464C145.934 326.912 145.368 327.287 144.879 327.752L143.495 329.234L142.34 330.911C141.927 331.442 141.704 332.124 141.376 332.715C140.71 333.923 140.307 335.186 140.006 336.428C139.744 337.679 139.738 338.914 139.932 340.088C140.351 342.442 141.838 344.491 143.778 346.231C145.734 347.967 148.167 349.342 150.722 350.479C155.847 352.775 161.431 354.386 167.114 355.57C172.784 356.848 178.574 357.754 184.391 358.531C190.207 359.355 196.072 359.879 201.943 360.5C213.7 361.578 225.518 362.38 237.384 363.423C225.53 364.6 213.618 364.959 201.691 364.655C195.724 364.524 189.766 364.088 183.798 363.546C177.84 362.906 171.892 362.019 165.971 360.775C160.078 359.435 154.184 357.746 148.552 355.023C145.76 353.626 143.011 351.959 140.612 349.652C140.031 349.048 139.422 348.492 138.911 347.794C138.651 347.456 138.374 347.138 138.132 346.78L137.454 345.668C136.638 344.134 135.974 342.44 135.824 340.658C135.451 337.094 136.594 333.682 138.331 331.034C138.783 330.368 139.115 329.643 139.667 329.04L141.227 327.196L143.047 325.591C143.684 325.1 144.391 324.69 145.066 324.259C147.891 322.702 151.083 322.003 154.154 322.126C157.228 322.219 160.218 322.919 162.934 324.154Z" fill="#807978"/>
<path d="M325.975 429.961C326.975 435.421 328.262 440.714 329.825 445.893C330.651 448.469 331.463 451.034 332.469 453.525C333.423 456.033 334.494 458.489 335.711 460.862C336.885 463.258 338.19 465.585 339.627 467.824C340.307 468.973 341.097 470.044 341.851 471.144C342.671 472.19 343.442 473.285 344.302 474.308C347.667 478.478 351.662 482.118 356.037 485.556C350.845 483.577 346.003 480.429 342.002 476.416C339.934 474.466 338.159 472.233 336.487 469.941C334.823 467.637 333.387 465.177 332.13 462.641C330.91 460.085 329.791 457.482 328.914 454.802C328.069 452.112 327.299 449.404 326.805 446.638C325.766 441.136 325.319 435.5 325.975 429.961Z" fill="#807978"/>
<path d="M163.917 355.297C163.928 355.188 163.908 355.07 163.86 354.972C163.775 354.818 163.84 354.958 163.832 354.961L163.849 355.066C163.865 355.117 163.907 355.193 163.935 355.256C164.04 355.504 164.22 355.822 164.38 356.121C164.724 356.745 165.088 357.393 165.428 358.066C166.113 359.409 166.705 360.833 167.092 362.309C167.467 363.792 167.609 365.322 167.512 366.805C167.444 368.297 166.989 369.713 166.489 371.042C166.669 369.617 166.773 368.208 166.513 366.845C166.279 365.489 165.839 364.202 165.221 363.016C164.587 361.832 163.801 360.749 162.923 359.716C162.484 359.198 162.017 358.69 161.533 358.158C161.284 357.877 161.041 357.618 160.768 357.266L160.567 357.005L160.337 356.638C160.257 356.478 160.205 356.474 160.1 356.141C160.009 355.869 159.948 355.578 159.917 355.297H163.917Z" fill="#807978"/>
<path d="M193.133 362.668C193.143 362.559 193.122 362.441 193.074 362.343C192.99 362.189 193.054 362.331 193.047 362.332L193.063 362.439C193.081 362.489 193.122 362.565 193.15 362.628C193.255 362.876 193.434 363.193 193.594 363.492C193.938 364.117 194.302 364.765 194.643 365.439C195.327 366.781 195.919 368.205 196.307 369.681C196.682 371.163 196.823 372.693 196.727 374.176C196.658 375.668 196.203 377.085 195.703 378.415C195.885 376.989 195.989 375.58 195.727 374.216C195.494 372.86 195.054 371.575 194.437 370.387C193.801 369.203 193.017 368.12 192.137 367.087C191.699 366.569 191.233 366.063 190.749 365.529C190.499 365.248 190.257 364.991 189.983 364.637L189.781 364.377L189.553 364.009C189.473 363.851 189.421 363.847 189.314 363.512C189.225 363.241 189.162 362.951 189.133 362.668H193.133Z" fill="#807978"/>
<path d="M216.875 361.507C217.486 361.74 217.788 361.935 218.182 362.181C218.552 362.42 218.895 362.675 219.216 362.949C219.867 363.489 220.422 364.108 220.912 364.757C221.891 366.057 222.531 367.517 222.932 368.979C223.368 370.44 223.45 371.931 223.495 373.375C223.476 374.1 223.431 374.82 223.387 375.532L223.094 377.645L222.887 375.54C222.766 374.849 222.644 374.163 222.502 373.489C222.135 372.16 221.74 370.852 221.074 369.715C220.439 368.571 219.647 367.556 218.71 366.793C218.242 366.415 217.751 366.08 217.235 365.835C216.982 365.705 216.718 365.597 216.464 365.515C216.238 365.432 215.892 365.348 215.832 365.368L216.875 361.507Z" fill="#807978"/>
<path d="M310.698 588.63C310.698 588.63 328.725 577.982 333.389 562.134C334.949 556.826 336.641 552.536 333.519 550.198L308.294 535.638L310.698 588.63Z" fill="#827A79"/>
<path d="M323.859 562.923C323.859 580.433 309.666 594.625 292.158 594.625C274.65 594.625 260.457 580.433 260.457 562.923C260.457 545.415 274.65 531.223 292.158 531.223C309.666 531.223 323.859 545.415 323.859 562.923Z" fill="#827A79"/>
<path d="M315.591 565.971C315.591 577.027 305.1 585.991 292.158 585.991C279.216 585.991 268.726 577.027 268.726 565.971C268.726 554.915 279.216 545.951 292.158 545.951C305.1 545.951 315.591 554.915 315.591 565.971Z" fill="#958C8B"/>
<path d="M268.175 536.871C267.434 537.49 266.692 538.146 265.954 538.84C263.154 541.468 263.079 545.89 265.843 548.555L266.96 549.63C267.706 550.348 268.875 550.394 269.662 549.72C270.704 548.827 272.328 547.548 274.424 546.232C276.38 545.007 277.11 542.52 276.186 540.404C275.904 539.759 275.615 539.118 275.318 538.479C274.043 535.747 270.49 534.938 268.175 536.871Z" fill="#CAC1BF"/>
<path d="M295.643 528.964C290.742 528.464 285.443 528.858 280.001 530.784C277.402 531.704 276.178 534.692 277.374 537.174C277.865 538.189 278.331 539.214 278.781 540.25C279.681 542.325 281.975 543.421 284.166 542.857C287.178 542.082 290.498 541.696 294.028 542.004C296.4 542.212 298.547 540.574 298.979 538.232C299.212 536.972 299.448 535.712 299.69 534.452C300.2 531.796 298.334 529.238 295.643 528.964Z" fill="#CAC1BF"/>
<path d="M313.865 534.271C312.237 533.32 310.37 532.336 308.303 531.421C305.563 530.209 302.405 531.88 301.845 534.823C301.594 536.141 301.349 537.463 301.107 538.783C300.73 540.833 301.781 542.86 303.646 543.793C304.725 544.332 305.811 544.948 306.907 545.649C309.506 547.313 312.909 546.983 315.131 544.843C318.323 541.769 317.69 536.505 313.865 534.271Z" fill="#CAC1BF"/>
<path d="M148.697 520.578C149.665 518.639 150.607 517.046 151.306 515.941C151.926 514.958 151.542 513.641 150.479 513.169C145.502 510.962 141.805 513.266 139.101 517.205C138.269 518.415 139.043 520.069 140.507 520.198C142.522 520.377 144.45 520.802 146.306 521.514C147.225 521.866 148.257 521.459 148.697 520.578Z" fill="#CAC1BF"/>
<path d="M134.36 540.323C133.259 540.262 132.345 541.134 132.324 542.238C132.223 547.398 133.952 551.108 139.175 551.034C140.431 551.016 141.733 549.619 141.931 548.103C142.061 547.096 142.477 544.704 142.795 542.916C143 541.764 142.144 540.702 140.976 540.652C138.733 540.559 136.1 540.419 134.36 540.323Z" fill="#CAC1BF"/>
<path d="M144.895 524.704C142.491 523.796 139.942 523.462 137.19 523.584C136.389 523.62 135.69 524.132 135.427 524.892C134.034 528.935 133.213 532.99 132.798 535.406C132.598 536.575 133.497 537.639 134.682 537.639H142.423C143.445 537.639 144.281 536.838 144.325 535.819C144.459 532.783 145.119 529.804 146.01 527.076C146.325 526.116 145.841 525.062 144.895 524.704Z" fill="#CAC1BF"/>
<path d="M304.37 411.242C303.419 415.597 294.386 417.325 284.192 415.102C273.999 412.878 266.507 407.546 267.456 403.19C268.406 398.834 277.439 397.106 287.632 399.33C297.826 401.553 305.319 406.886 304.37 411.242Z" fill="#A4908B"/>
<path d="M363.594 563.517C361.464 563.922 359.624 564.138 358.324 564.253C357.166 564.354 356.35 565.457 356.62 566.589C357.879 571.885 361.952 573.432 366.724 573.196C368.191 573.124 369.036 571.505 368.254 570.264C367.175 568.552 366.344 566.76 365.787 564.853C365.51 563.908 364.562 563.333 363.594 563.517Z" fill="#CAC1BF"/>
<path d="M369.18 564.042C369.914 566.503 371.193 568.736 372.957 570.85C373.472 571.466 374.302 571.711 375.065 571.458C379.126 570.119 382.849 568.315 385.022 567.18C386.074 566.63 386.376 565.271 385.657 564.328L380.966 558.17C380.349 557.358 379.205 557.179 378.368 557.76C375.87 559.494 373.1 560.772 370.39 561.716C369.436 562.05 368.889 563.071 369.18 564.042Z" fill="#CAC1BF"/>
<path d="M168.944 299.165C165.581 299.165 162.856 296.439 162.856 293.077C162.856 289.714 165.581 286.987 168.944 286.987C172.307 286.987 175.032 289.714 175.032 293.077C175.032 296.439 172.307 299.165 168.944 299.165ZM168.944 282.157C162.913 282.157 158.024 287.045 158.024 293.077C158.024 297.297 160.421 300.951 163.927 302.769L157.855 322.827L159.584 323.258L168.623 303.981C168.731 303.983 168.835 303.997 168.944 303.997C174.975 303.997 179.864 299.107 179.864 293.077C179.864 287.045 174.975 282.157 168.944 282.157" fill="#B74149"/>
<g opacity="0.509995">
<g opacity="0.509995">
<path opacity="0.509995" d="M197.168 285.272C199.067 291.457 193.14 298.762 183.929 301.59C174.72 304.417 165.715 301.696 163.815 295.51C161.917 289.325 167.844 282.02 177.055 279.192C186.264 276.365 195.269 279.086 197.168 285.272Z" fill="#5EC4E6"/>
</g>
</g>
<g opacity="0.509995">
<g opacity="0.509995">
<path opacity="0.509995" d="M216.731 276.087C218.605 282.195 212.753 289.409 203.657 292.201C194.561 294.993 185.668 292.305 183.793 286.197C181.919 280.089 187.772 272.875 196.867 270.083C205.963 267.289 214.856 269.977 216.731 276.087Z" fill="#5EC4E6"/>
</g>
</g>
<g opacity="0.509995">
<g opacity="0.509995">
<path opacity="0.509995" d="M248.179 295.341C249.191 299.007 247.04 302.8 243.376 303.812C239.711 304.825 235.918 302.675 234.906 299.009C233.892 295.344 236.043 291.552 239.708 290.539C243.374 289.527 247.166 291.676 248.179 295.341Z" fill="#5EC4E6"/>
</g>
</g>
<g opacity="0.509995">
<g opacity="0.509995">
<path opacity="0.509995" d="M297.53 262.322C293.529 263.429 289.389 261.081 288.282 257.078C287.177 253.077 289.525 248.937 293.526 247.832C297.529 246.725 301.669 249.073 302.775 253.074C303.881 257.076 301.533 261.217 297.53 262.322Z" fill="#5EC4E6"/>
</g>
</g>
<g opacity="0.839996">
<g opacity="0.839996">
<path opacity="0.839996" d="M310.819 288.476C313.71 298.941 307.57 309.771 297.104 312.661C286.639 315.553 275.811 309.413 272.919 298.948C270.027 288.483 276.167 277.655 286.632 274.763C297.098 271.871 307.927 278.009 310.819 288.476Z" fill="#5EC4E6"/>
</g>
</g>
<g opacity="0.509995">
<g opacity="0.509995">
<path opacity="0.509995" d="M324.729 276.989C326.721 284.198 322.492 291.658 315.281 293.652C308.072 295.644 300.612 291.413 298.62 284.204C296.628 276.993 300.857 269.534 308.068 267.541C315.277 265.549 322.737 269.778 324.729 276.989Z" fill="#5EC4E6"/>
</g>
</g>
<g opacity="0.509995">
<g opacity="0.509995">
<path opacity="0.509995" d="M284.878 215.827C287.076 231.193 276.402 245.431 261.036 247.629C245.67 249.826 231.433 239.151 229.236 223.786C227.037 208.421 237.712 194.184 253.077 191.985C268.442 189.788 282.681 200.462 284.878 215.827Z" fill="#5EC4E6"/>
</g>
</g>
<g opacity="0.839996">
<g opacity="0.839996">
<path opacity="0.839996" d="M502.124 132.21C502.124 204.528 443.497 263.154 371.18 263.154C298.862 263.154 240.237 204.528 240.237 132.21C240.237 59.893 298.862 1.26764 371.18 1.26764C443.497 1.26764 502.124 59.893 502.124 132.21Z" fill="#5EC4E6"/>
</g>
</g>
<path d="M216.079 282.612C215.148 285.808 212.763 288.521 210.005 290.457C208.627 291.456 207.097 292.228 205.529 292.889C203.948 293.525 202.293 293.956 200.615 294.285C198.923 294.524 197.207 294.656 195.488 294.54C193.776 294.375 192.059 294.08 190.443 293.439C188.821 292.836 187.296 291.908 186.072 290.671C184.865 289.428 183.981 287.848 183.793 286.197C185.316 289.165 188.157 290.736 191.081 291.457C194.035 292.171 197.151 292.172 200.173 291.657C203.203 291.144 206.172 290.156 208.909 288.697C211.635 287.216 214.156 285.283 216.079 282.612Z" fill="#5EC4E6"/>
<path d="M239.708 290.538C240.939 289.9 242.448 289.728 243.91 290.021C245.36 290.344 246.756 291.128 247.788 292.304C248.848 293.465 249.468 294.994 249.663 296.578C249.835 298.176 249.476 299.82 248.691 301.229C247.887 302.626 246.659 303.778 245.202 304.454C243.74 305.098 242.11 305.354 240.568 305.041C239.806 304.88 239.066 304.637 238.395 304.266C237.732 303.882 237.132 303.418 236.616 302.882C235.614 301.778 234.987 300.396 234.906 299.009C236.16 301.478 238.519 302.9 240.824 302.976C243.139 303.077 245.307 301.818 246.372 299.914C247.464 298.022 247.43 295.514 246.154 293.58C244.904 291.638 242.471 290.344 239.708 290.538Z" fill="#5EC4E6"/>
<path d="M302.775 253.075C303.851 254.828 303.921 257.26 302.969 259.296C302.049 261.348 300.128 263.006 297.885 263.607C295.653 264.247 293.151 263.808 291.307 262.52C289.444 261.264 288.256 259.138 288.283 257.079C289.348 258.824 290.76 260.036 292.333 260.711C293.913 261.38 295.611 261.462 297.176 261.038C298.737 260.603 300.153 259.658 301.165 258.274C302.172 256.886 302.76 255.118 302.775 253.075Z" fill="#5EC4E6"/>
<path d="M308.26 304.568C305.846 309.274 301.092 312.886 295.684 314.04C292.994 314.674 290.15 314.669 287.412 314.144C284.676 313.592 282.056 312.456 279.76 310.857C277.487 309.224 275.536 307.138 274.1 304.744C272.698 302.333 271.732 299.664 271.419 296.916C270.714 291.422 272.536 285.749 276.156 281.893C273.451 286.421 272.496 291.706 273.474 296.592C274.462 301.466 277.266 305.881 281.295 308.678C285.278 311.54 290.388 312.733 295.3 312.002C300.24 311.308 304.908 308.642 308.26 304.568" fill="#5EC4E6"/>
<path d="M308.068 267.541C310.313 266.658 312.893 266.376 315.365 266.902C317.846 267.394 320.201 268.622 322.092 270.398C323.972 272.177 325.368 274.516 326.033 277.053C326.71 279.593 326.666 282.328 325.914 284.861C325.156 287.389 323.676 289.689 321.732 291.453C319.757 293.186 317.336 294.412 314.774 294.841C312.224 295.309 309.573 295.017 307.23 294.076C304.896 293.118 302.854 291.532 301.485 289.525C305.077 292.792 310.03 293.976 314.33 292.808C318.653 291.701 322.154 288.272 323.362 284.094C324.694 279.945 323.562 275.16 320.612 271.849C317.645 268.51 312.864 266.793 308.068 267.541Z" fill="#5EC4E6"/>
<path d="M234.57 202.948C237.098 199.087 240.725 195.927 244.893 193.748C246.994 192.688 249.236 191.887 251.548 191.363C253.865 190.852 256.249 190.693 258.632 190.712C263.408 190.849 268.12 192.315 272.278 194.699C276.384 197.189 279.89 200.679 282.381 204.801C284.792 208.973 286.181 213.717 286.392 218.515C286.522 223.316 285.474 228.139 283.337 232.403C281.162 236.648 277.937 240.315 274.068 242.992C270.133 245.568 265.634 247.247 261.036 247.628C265.536 246.648 269.776 244.751 273.293 241.939C276.806 239.135 279.597 235.513 281.461 231.501C283.224 227.444 284.126 223.021 283.869 218.629C283.6 214.243 282.312 209.935 280.089 206.161C277.862 202.387 274.68 199.201 270.973 196.852C267.228 194.553 262.934 193.147 258.522 192.781C249.672 192.063 240.478 195.839 234.57 202.948Z" fill="#5EC4E6"/>
<path d="M269.232 50.0287C276.064 41.3994 283.988 33.618 292.774 26.946C301.553 20.2687 311.16 14.6274 321.382 10.3994C341.814 1.91803 364.429 -1.29396 386.474 1.1567C397.486 2.40337 408.398 4.90869 418.736 8.97402L422.612 10.4954L426.409 12.2034C428.969 13.2834 431.385 14.6607 433.874 15.8887C438.72 18.5914 443.512 21.4207 447.993 24.706C457.077 31.1047 465.241 38.7634 472.436 47.2234C479.614 55.706 485.652 65.1394 490.529 75.1247C495.246 85.186 498.842 95.7954 500.917 106.717C502.974 117.631 503.776 128.795 503.098 139.882C502.384 150.958 500.42 161.975 496.982 172.537C493.533 183.083 488.864 193.255 482.814 202.558L480.546 206.045L478.118 209.421L476.905 211.107L475.613 212.737L473.026 215.99C469.408 220.182 465.702 224.314 461.596 228.038C453.544 235.649 444.437 242.094 434.76 247.434C425.037 252.711 414.632 256.667 403.941 259.385C393.216 261.991 382.186 263.25 371.18 263.154C382.185 262.962 393.145 261.462 403.765 258.701C414.348 255.803 424.598 251.689 434.128 246.29C443.64 240.879 452.577 234.419 460.44 226.813C464.452 223.094 468.062 218.974 471.585 214.802L474.097 211.566L475.353 209.949L476.532 208.273L478.885 204.921L481.08 201.463C482.594 199.191 483.836 196.753 485.213 194.398C485.857 193.195 486.452 191.967 487.073 190.753C487.689 189.535 488.318 188.326 488.849 187.067L490.522 183.334C491.08 182.09 491.536 180.802 492.045 179.538C493.096 177.021 493.912 174.415 494.788 171.834C498.125 161.446 500.013 150.619 500.676 139.743C501.302 128.854 500.472 117.901 498.416 107.205C496.345 96.502 492.77 86.1207 488.126 76.2767C483.384 66.4754 477.5 57.2047 470.489 48.8607C463.462 40.5367 455.478 32.9887 446.584 26.6754C428.921 13.858 407.9 5.83403 386.24 3.1847C364.558 0.527365 342.202 3.45404 321.874 11.602C301.476 19.642 283.348 33.1647 269.232 50.0287Z" fill="#5EC4E6"/>
<g opacity="0.220001">
<g opacity="0.220001">
<g opacity="0.220001">
<g opacity="0.490005">
<g opacity="0.490005">
<path opacity="0.490005" d="M183.932 286.552C184.266 284.573 185.158 282.673 186.536 281.201C191.488 275.905 199.333 273.583 206.133 276.452C210.282 278.204 213.016 281.567 214.221 285.485C216.645 282.545 217.68 279.175 216.73 276.087C214.856 269.977 205.962 267.289 196.866 270.081C187.772 272.875 181.918 280.089 183.793 286.197C183.83 286.32 183.889 286.432 183.932 286.552Z" fill="white"/>
</g>
</g>
</g>
</g>
</g>
<g opacity="0.220001">
<g opacity="0.220001">
<g opacity="0.220001">
<g opacity="0.490005">
<g opacity="0.490005">
<path opacity="0.490005" d="M237.333 295.052C238.657 295.001 239.892 295.277 241.037 295.88C242.229 296.268 243.261 296.931 244.132 297.868C245.223 298.96 246.052 300.383 246.519 301.899C248.123 300.205 248.845 297.755 248.179 295.341C247.167 291.676 243.373 289.525 239.708 290.539C237.269 291.212 235.528 293.127 234.916 295.405C235.711 295.208 236.527 295.088 237.333 295.052Z" fill="white"/>
</g>
</g>
</g>
</g>
</g>
<g opacity="0.220001">
<g opacity="0.220001">
<g opacity="0.220001">
<g opacity="0.490005">
<g opacity="0.490005">
<path opacity="0.490005" d="M292 251.052C293.324 251.001 294.559 251.277 295.704 251.88C296.896 252.268 297.927 252.931 298.799 253.868C300.283 255.352 301.273 257.451 301.537 259.564C302.877 257.767 303.417 255.403 302.775 253.075C301.668 249.073 297.528 246.725 293.527 247.831C291.432 248.411 289.799 249.824 288.867 251.609C289.881 251.283 290.948 251.099 292 251.052Z" fill="white"/>
</g>
</g>
</g>
</g>
</g>
<g opacity="0.220001">
<g opacity="0.220001">
<g opacity="0.220001">
<g opacity="0.490005">
<g opacity="0.490005">
<path opacity="0.490005" d="M290.643 313.111C283.857 307.801 282.731 297.578 286.638 290.179C290.318 283.213 298.137 279.991 305.673 279.734C300.833 274.962 293.657 272.822 286.633 274.762C276.167 277.654 270.027 288.482 272.919 298.947C275.245 307.363 282.705 312.973 290.978 313.346C290.869 313.265 290.751 313.197 290.643 313.111Z" fill="white"/>
</g>
</g>
</g>
</g>
</g>
<g opacity="0.220001">
<g opacity="0.220001">
<g opacity="0.220001">
<g opacity="0.490005">
<g opacity="0.490005">
<path opacity="0.490005" d="M324.729 276.989C322.737 269.778 315.277 265.549 308.068 267.541C306.363 268.013 304.831 268.798 303.501 269.805C303.891 269.754 304.28 269.718 304.667 269.718H307.333C312.54 269.718 316.949 274.136 316.948 279.333C316.947 280.962 316.86 282.642 316.415 284.214C315.781 286.452 314.548 288.286 312.965 289.961C311.099 291.933 308.58 292.861 305.985 292.878C308.796 294.182 312.063 294.541 315.281 293.652C322.492 291.658 326.721 284.198 324.729 276.989Z" fill="white"/>
</g>
</g>
</g>
</g>
</g>
<g opacity="0.839996">
<g opacity="0.839996">
<path opacity="0.839996" d="M171.781 161.332C159.971 168.896 144.266 165.453 136.702 153.644C129.138 141.835 132.581 126.129 144.39 118.565C156.199 111.001 171.905 114.444 179.469 126.253C187.033 138.063 183.59 153.769 171.781 161.332Z" fill="#5EC4E6"/>
</g>
</g>
<g opacity="0.509995">
<g opacity="0.509995">
<path opacity="0.509995" d="M196.968 203.416C188.832 208.627 178.012 206.255 172.801 198.119C167.591 189.984 169.963 179.164 178.099 173.953C186.235 168.743 197.053 171.113 202.265 179.249C207.475 187.385 205.104 198.205 196.968 203.416Z" fill="#5EC4E6"/>
</g>
</g>
<path d="M150.947 164.318C147.614 163.641 144.406 162.18 141.605 160.121C138.825 158.034 136.43 155.365 134.727 152.277C132.967 149.217 131.911 145.752 131.538 142.22C131.193 138.68 131.589 135.068 132.677 131.673C133.802 128.292 135.602 125.133 137.969 122.477C140.358 119.849 143.241 117.661 146.458 116.21C149.67 114.75 153.167 113.968 156.646 113.941C160.123 113.941 163.575 114.636 166.67 116.05C160.105 114.284 153.126 115.018 147.377 118.078C141.637 121.137 137.162 126.36 135.211 132.497C133.175 138.601 133.687 145.48 136.559 151.308C139.386 157.184 144.594 161.897 150.947 164.318Z" fill="#5EC4E6"/>
<path d="M202.265 179.249C204.138 181.728 205.408 184.797 205.65 188.017C205.825 189.627 205.669 191.255 205.405 192.861C205.105 194.468 204.54 196.017 203.828 197.501C202.345 200.435 200.03 202.995 197.198 204.735C194.372 206.495 191.049 207.463 187.705 207.495C186.034 207.505 184.361 207.296 182.756 206.844C181.137 206.437 179.597 205.753 178.16 204.919C175.312 203.193 172.917 200.729 171.404 197.799C169.857 194.889 169.173 191.568 169.394 188.351C169.633 185.136 170.746 182.02 172.626 179.521C169.821 185.112 170.122 191.791 173.216 196.773C176.229 201.813 181.928 204.936 187.682 204.829C193.45 204.884 199.049 201.552 202.004 196.516C204.998 191.46 205.162 184.792 202.265 179.249Z" fill="#5EC4E6"/>
<g opacity="0.220001">
<g opacity="0.220001">
<g opacity="0.220001">
<g opacity="0.490005">
<g opacity="0.490005">
<path opacity="0.490005" d="M133.68 145.843C137.643 135.442 149.827 130.15 160.447 132.146C170.448 134.026 177.408 142.444 180.603 151.647C184.643 143.85 184.544 134.179 179.468 126.254C171.904 114.444 156.2 111.002 144.39 118.566C134.894 124.648 130.822 135.994 133.519 146.346C133.578 146.179 133.618 146.01 133.68 145.843Z" fill="white"/>
</g>
</g>
</g>
</g>
</g>
<g opacity="0.220001">
<g opacity="0.220001">
<g opacity="0.220001">
<g opacity="0.490005">
<g opacity="0.490005">
<path opacity="0.490005" d="M196.968 203.416C205.104 198.205 207.475 187.385 202.265 179.249C201.032 177.325 199.479 175.736 197.728 174.48C197.94 174.941 198.132 175.408 198.28 175.885L199.299 179.175C201.285 185.601 197.519 192.727 191.105 194.708C189.093 195.329 186.988 195.864 184.879 195.915C181.876 195.987 179.141 195.165 176.471 193.851C173.324 192.303 171.217 189.547 170.205 186.353C169.669 190.319 170.475 194.485 172.801 198.119C178.013 206.255 188.832 208.627 196.968 203.416Z" fill="white"/>
</g>
</g>
</g>
</g>
</g>
<g opacity="0.220001">
<g opacity="0.220001">
<g opacity="0.220001">
<g opacity="0.490005">
<g opacity="0.490005">
<path opacity="0.490005" d="M259.46 242.586C238.368 231.93 247.988 199.918 266.174 193.242C262.095 191.838 257.64 191.333 253.078 191.985C237.712 194.183 227.038 208.421 229.235 223.786C231.432 239.151 245.671 249.826 261.036 247.629C264.168 247.181 267.092 246.21 269.766 244.854C266.475 245.05 263 244.375 259.46 242.586Z" fill="white"/>
</g>
</g>
</g>
</g>
</g>
<g opacity="0.220001">
<g opacity="0.220001">
<g opacity="0.220001">
<g opacity="0.490005">
<g opacity="0.490005">
<path opacity="0.490005" d="M325.975 82.6661C378.795 25.8274 465.663 47.9221 473.131 50.0474C449.127 20.3007 412.381 1.2674 371.179 1.2674C298.862 1.2674 240.237 59.8927 240.237 132.21C240.237 173.329 259.195 210.013 288.839 234.019C284.009 183.49 290.643 120.686 325.975 82.6661" fill="white"/>
</g>
</g>
</g>
</g>
</g>
<path d="M284.808 85.1819C286.396 85.1819 287.783 84.7008 288.97 83.7386C290.157 82.7763 290.814 81.5735 290.943 80.1301H295.153C295.072 81.6216 294.559 83.0409 293.613 84.3881C292.667 85.7352 291.4 86.8097 289.812 87.6116C288.24 88.4135 286.572 88.8144 284.808 88.8144C281.264 88.8144 278.441 87.6357 276.341 85.2782C274.256 82.9046 273.213 79.665 273.213 75.5594V74.8137C273.213 72.2797 273.678 70.0265 274.608 68.0538C275.539 66.0812 276.87 64.5496 278.602 63.4591C280.35 62.3685 282.411 61.8233 284.784 61.8233C287.703 61.8233 290.125 62.6973 292.049 64.4454C293.99 66.1935 295.024 68.4628 295.153 71.2533H290.943C290.814 69.5694 290.173 68.1902 289.018 67.1156C287.88 66.0251 286.468 65.4798 284.784 65.4798C282.523 65.4798 280.767 66.2977 279.516 67.9336C278.281 69.5534 277.664 71.9029 277.664 74.9821V75.824C277.664 78.8231 278.281 81.1325 279.516 82.7523C280.751 84.372 282.515 85.1819 284.808 85.1819ZM298.977 75.0783C298.977 72.5283 299.475 70.2349 300.469 68.1982C301.479 66.1614 302.875 64.5897 304.655 63.4831C306.451 62.3766 308.496 61.8233 310.789 61.8233C314.333 61.8233 317.196 63.0501 319.377 65.5039C321.574 67.9576 322.673 71.2213 322.673 75.2948V75.6075C322.673 78.1415 322.184 80.4188 321.206 82.4395C320.243 84.4442 318.856 86.0079 317.044 87.1305C315.248 88.2531 313.179 88.8144 310.837 88.8144C307.309 88.8144 304.446 87.5876 302.249 85.1338C300.068 82.6801 298.977 79.4325 298.977 75.391V75.0783ZM303.452 75.6075C303.452 78.4943 304.118 80.8117 305.449 82.5598C306.796 84.3079 308.592 85.1819 310.837 85.1819C313.099 85.1819 314.895 84.2999 316.226 82.5357C317.557 80.7556 318.223 78.2698 318.223 75.0783C318.223 72.2236 317.541 69.9142 316.178 68.1501C314.831 66.3699 313.034 65.4798 310.789 65.4798C308.592 65.4798 306.82 66.3539 305.473 68.102C304.126 69.85 303.452 72.3519 303.452 75.6075ZM332.44 62.3044L332.56 65.1911C334.469 62.9459 337.043 61.8233 340.282 61.8233C343.923 61.8233 346.401 63.2185 347.716 66.0091C348.582 64.7581 349.704 63.7478 351.083 62.978C352.479 62.2082 354.123 61.8233 356.015 61.8233C361.724 61.8233 364.627 64.8463 364.723 70.8925V88.3333H360.273V71.1571C360.273 69.2968 359.848 67.9095 358.998 66.9954C358.148 66.0652 356.721 65.6001 354.716 65.6001C353.064 65.6001 351.693 66.0973 350.602 67.0916C349.512 68.0699 348.878 69.393 348.702 71.0609V88.3333H344.227V71.2774C344.227 67.4925 342.375 65.6001 338.67 65.6001C335.752 65.6001 333.755 66.843 332.68 69.3288V88.3333H328.23V62.3044H332.44ZM376.294 88.3333H371.844V62.3044H376.294V88.3333ZM371.483 55.4002C371.483 54.6785 371.7 54.0691 372.133 53.5719C372.582 53.0748 373.239 52.8262 374.105 52.8262C374.971 52.8262 375.629 53.0748 376.078 53.5719C376.527 54.0691 376.752 54.6785 376.752 55.4002C376.752 56.1219 376.527 56.7233 376.078 57.2044C375.629 57.6856 374.971 57.9261 374.105 57.9261C373.239 57.9261 372.582 57.6856 372.133 57.2044C371.7 56.7233 371.483 56.1219 371.483 55.4002ZM387.649 62.3044L387.793 65.576C389.782 63.0742 392.38 61.8233 395.588 61.8233C401.089 61.8233 403.863 64.9265 403.911 71.1331V88.3333H399.461V71.109C399.445 69.2326 399.012 67.8454 398.162 66.9473C397.328 66.0491 396.021 65.6001 394.241 65.6001C392.797 65.6001 391.53 65.985 390.44 66.7548C389.349 67.5246 388.499 68.535 387.89 69.7859V88.3333H383.439V62.3044H387.649ZM409.564 75.1023C409.564 71.0448 410.503 67.8213 412.379 65.4317C414.255 63.0261 416.741 61.8233 419.836 61.8233C423.012 61.8233 425.49 62.9459 427.27 65.1911L427.486 62.3044H431.552V87.7079C431.552 91.0757 430.55 93.7299 428.545 95.6705C426.556 97.611 423.878 98.5813 420.51 98.5813C418.634 98.5813 416.797 98.1804 415.001 97.3785C413.205 96.5766 411.834 95.478 410.887 94.0828L413.197 91.4125C415.105 93.77 417.439 94.9488 420.197 94.9488C422.362 94.9488 424.046 94.3394 425.249 93.1205C426.468 91.9017 427.077 90.1857 427.077 87.9725V85.7352C425.297 87.788 422.868 88.8144 419.788 88.8144C416.741 88.8144 414.271 87.5876 412.379 85.1338C410.503 82.6801 409.564 79.3363 409.564 75.1023ZM414.039 75.6075C414.039 78.5424 414.64 80.8518 415.843 82.5357C417.046 84.2036 418.73 85.0376 420.895 85.0376C423.701 85.0376 425.762 83.7626 427.077 81.2126V69.3288C425.714 66.843 423.669 65.6001 420.943 65.6001C418.778 65.6001 417.086 66.4421 415.867 68.126C414.648 69.81 414.039 72.3038 414.039 75.6075Z" fill="white"/>
<path d="M278.719 145.994C270.26 143.563 264.096 140.583 260.226 137.056C256.39 133.494 254.473 129.111 254.473 123.905C254.473 118.015 256.818 113.152 261.51 109.316C266.236 105.446 272.366 103.511 279.901 103.511C285.038 103.511 289.61 104.505 293.616 106.491C297.658 108.477 300.774 111.217 302.966 114.71C305.192 118.203 306.305 122.022 306.305 126.166H296.39C296.39 121.645 294.952 118.1 292.075 115.532C289.199 112.929 285.14 111.628 279.901 111.628C275.038 111.628 271.236 112.707 268.497 114.864C265.791 116.987 264.438 119.95 264.438 123.751C264.438 126.799 265.723 129.385 268.291 131.508C270.894 133.597 275.295 135.515 281.493 137.261C287.726 139.008 292.589 140.943 296.082 143.066C299.61 145.155 302.212 147.604 303.89 150.412C305.603 153.22 306.459 156.525 306.459 160.326C306.459 166.388 304.096 171.251 299.37 174.916C294.644 178.546 288.325 180.361 280.414 180.361C275.277 180.361 270.483 179.385 266.031 177.433C261.579 175.446 258.137 172.741 255.705 169.316C253.308 165.892 252.11 162.005 252.11 157.655H262.024C262.024 162.176 263.685 165.755 267.007 168.392C270.363 170.994 274.832 172.296 280.414 172.296C285.62 172.296 289.61 171.234 292.384 169.111C295.158 166.987 296.545 164.094 296.545 160.429C296.545 156.765 295.26 153.939 292.692 151.953C290.123 149.933 285.466 147.946 278.719 145.994ZM315.14 151.029C315.14 145.583 316.202 140.686 318.325 136.337C320.483 131.987 323.462 128.631 327.264 126.268C331.099 123.905 335.466 122.724 340.363 122.724C347.931 122.724 354.045 125.344 358.702 130.583C363.394 135.823 365.74 142.792 365.74 151.491V152.159C365.74 157.57 364.695 162.433 362.606 166.748C360.551 171.029 357.589 174.368 353.719 176.765C349.884 179.162 345.466 180.361 340.466 180.361C332.931 180.361 326.818 177.741 322.127 172.501C317.469 167.261 315.14 160.326 315.14 151.696V151.029ZM324.695 152.159C324.695 158.323 326.116 163.272 328.959 167.005C331.836 170.737 335.671 172.604 340.466 172.604C345.295 172.604 349.13 170.72 351.973 166.953C354.815 163.152 356.236 157.844 356.236 151.029C356.236 144.933 354.781 140.001 351.87 136.234C348.993 132.433 345.158 130.532 340.363 130.532C335.671 130.532 331.887 132.398 329.01 136.131C326.134 139.864 324.695 145.207 324.695 152.159ZM375.14 151.029C375.14 145.583 376.202 140.686 378.325 136.337C380.483 131.987 383.462 128.631 387.264 126.268C391.099 123.905 395.466 122.724 400.363 122.724C407.931 122.724 414.044 125.344 418.702 130.583C423.394 135.823 425.74 142.792 425.74 151.491V152.159C425.74 157.57 424.695 162.433 422.606 166.748C420.551 171.029 417.589 174.368 413.719 176.765C409.884 179.162 405.466 180.361 400.466 180.361C392.931 180.361 386.818 177.741 382.127 172.501C377.469 167.261 375.14 160.326 375.14 151.696V151.029ZM384.695 152.159C384.695 158.323 386.116 163.272 388.959 167.005C391.836 170.737 395.671 172.604 400.466 172.604C405.294 172.604 409.13 170.72 411.973 166.953C414.815 163.152 416.236 157.844 416.236 151.029C416.236 144.933 414.781 140.001 411.87 136.234C408.993 132.433 405.158 130.532 400.363 130.532C395.671 130.532 391.887 132.398 389.01 136.131C386.134 139.864 384.695 145.207 384.695 152.159ZM446.647 123.751L446.955 130.737C451.202 125.395 456.75 122.724 463.599 122.724C475.346 122.724 481.27 129.35 481.373 142.604V179.333H471.87V142.552C471.836 138.546 470.911 135.583 469.096 133.666C467.315 131.748 464.524 130.789 460.723 130.789C457.64 130.789 454.935 131.611 452.606 133.255C450.277 134.898 448.462 137.056 447.161 139.727V179.333H437.657V123.751H446.647Z" fill="white"/>
</svg>
