<svg width="223" height="221" viewBox="0 0 223 221" fill="none" xmlns="http://www.w3.org/2000/svg">
<line y1="-2" x2="44.5129" y2="-2" transform="translate(0.00442505 112.228) rotate(37.5526)"
  stroke="#494949" stroke-width="10"/>
<line y1="-2" x2="45.6874" y2="-2" transform="translate(56.6455 98.0222) rotate(118.746)"
  stroke="#494949" stroke-width="10"/>
<path d="M0 44.3137V60.2421H14.6732V52.8905H20.9908V45.9474H25.8819L28.735 40.6379V34.3074L35.0526 30.6316L51.56 11.8442L51.522 11.8127L37.2944 0L0 44.3137Z"
  transform="translate(74.4582 100.944) rotate(-13.4153)" stroke="#494949" stroke-width="10"/>
<path d="M16.0998 8.06632C16.0998 12.5212 12.4957 16.1326 8.04988 16.1326C3.60405 16.1326 0 12.5212 0 8.06632C0 3.61141 3.60405 0 8.04988 0C12.4957 0 16.0998 3.61141 16.0998 8.06632Z" transform="translate(124.162 60.7468) rotate(-13.4153)"
  fill="#494949"/>
<path fill-rule="evenodd" clip-rule="evenodd" d="M3.57854 38.3198C1.30624 34.5202 6.6362e-06 30.074 0 25.3221C-2.06047e-06 11.3371 11.314 9.5405e-07 25.2705 0C39.227 2.97114e-06 50.541 11.3371 50.541 25.3221C50.541 39.3071 39.227 50.6442 25.2705 50.6442C22.26 50.6442 19.3724 50.1167 16.6948 49.1489L18.4052 47.2903C20.6326 48.0095 23.0082 48.3979 25.4743 48.3979C38.1927 48.3979 48.5031 38.0665 48.5031 25.3221C48.5031 12.5777 38.1927 2.24631 25.4743 2.24632C12.7559 2.24631 2.44553 12.5777 2.44553 25.3221C2.44553 29.3582 3.4796 33.1522 5.29675 36.4528L3.57854 38.3198Z" transform="translate(98.4761 57.4262) rotate(-13.4153)"
  fill="#494949" stroke="#494949" stroke-width="10" />
<path fill-rule="evenodd" clip-rule="evenodd" d="M166.573 83.5C166.573 129.616 129.188 167 83.0727 167C82.9059 167 82.7392 167 82.5727 166.999V161.994C82.9055 161.998 83.2389 162 83.5727 162C127.203 162 162.573 126.63 162.573 83C162.573 39.3695 127.203 4 83.5727 4C42.6427 4 8.98264 35.1267 4.97275 75H0C4.25876 32.8767 39.8264 0 83.0727 0C129.188 0 166.573 37.3842 166.573 83.5Z" transform="translate(2.91205 67.4596) rotate(-23.6691)"
  fill="#494949" stroke="#494949" stroke-width="20"/>
</svg>
